# xmcd
#
# Track frame offsets: 
#        150
#        14120
#        25685
#        40247
#        47403
#        67947
#        81136
#        91188
#        109510
#        116486
#        130515
#        143917
#        154055
#        171693
#        180033
#        197158
#        203501
#        216404
#        230872
#        246038
#        260563
#        273591
#
# Disc length: 3838 seconds
#
# Revision: 0
# Processed by: cddbd v1.5.2PL0 Copyright (c) Steve Scherf et al.
# Submitted via: ExactAudioCopy v0.99pb5
#
DISCID=300efc16
DTITLE=Elvis Presley  - FTD 60 - Unchained Melody - 02-20-1977
DYEAR=1900
DGENRE=
TTITLE0=Love Me
TTITLE1=Fairytale
TTITLE2=You Gave Me A Mountain
TTITLE3=Jailhouse Rock
TTITLE4=O Sole Mio-It's Now Or Never
TTITLE5=Little Sister
TTITLE6=Teddy Bear-Don't Be Cruel
TTITLE7=My Way
TTITLE8=Moody Blue (Intro Only)
TTITLE9=How Great Thou Art
TTITLE10=Hurt
TTITLE11=Hound Dog
TTITLE12=Unchaind Melody
TTITLE13=Can't Help Falling In Love
TTITLE14=Moody Blue (Live, 02-21-1977)
TTITLE15=Blueberry Hill (Live, 02-14-1977)
TTITLE16=Love Letters (Live, 02-14-1977)
TTITLE17=Where No One Stands Alone (Live, 02-16-1977)
TTITLE18=Release Me (Live, 02-18-1977)
TTITLE19=Trying To Get To You (Live, 02-18-1977)
TTITLE20=Reconsider Baby (Live, 02-21-1977)
TTITLE21=Why Me, Lord (Live, 02-21-1977)
EXTD=
EXTT0=
EXTT1=
EXTT2=
EXTT3=
EXTT4=
EXTT5=
EXTT6=
EXTT7=
EXTT8=
EXTT9=
EXTT10=
EXTT11=
EXTT12=
EXTT13=
EXTT14=
EXTT15=
EXTT16=
EXTT17=
EXTT18=
EXTT19=
EXTT20=
EXTT21=
PLAYORDER=
